<svg width="52" height="50" viewBox="0 0 52 50" fill="none" xmlns="http://www.w3.org/2000/svg">
<rect x="1.5" y="1.5" width="49" height="47" stroke="#F0EBD8" stroke-width="3"/>
<path d="M17.9545 19.5455V22.7273H7.92045V19.5455H17.9545ZM10.3977 15.3636H14.5114V31.75C14.5114 32.303 14.5947 32.7273 14.7614 33.0227C14.9356 33.3106 15.1629 33.5076 15.4432 33.6136C15.7235 33.7197 16.0341 33.7727 16.375 33.7727C16.6326 33.7727 16.8674 33.7538 17.0795 33.7159C17.2992 33.678 17.4659 33.6439 17.5795 33.6136L18.2727 36.8295C18.053 36.9053 17.7386 36.9886 17.3295 37.0795C16.928 37.1705 16.4356 37.2235 15.8523 37.2386C14.822 37.2689 13.8939 37.1136 13.0682 36.7727C12.2424 36.4242 11.5871 35.8864 11.1023 35.1591C10.625 34.4318 10.3902 33.5227 10.3977 32.4318V15.3636ZM34.9403 24.1591L31.1903 24.5682C31.0843 24.1894 30.8987 23.8333 30.6335 23.5C30.3759 23.1667 30.0275 22.8977 29.5881 22.6932C29.1487 22.4886 28.6108 22.3864 27.9744 22.3864C27.1184 22.3864 26.3987 22.572 25.8153 22.9432C25.2396 23.3144 24.9555 23.7955 24.9631 24.3864C24.9555 24.8939 25.1411 25.3068 25.5199 25.625C25.9063 25.9432 26.5426 26.2045 27.429 26.4091L30.4062 27.0455C32.0578 27.4015 33.285 27.9659 34.0881 28.7386C34.8987 29.5114 35.3078 30.5227 35.3153 31.7727C35.3078 32.8712 34.9858 33.8409 34.3494 34.6818C33.7206 35.5152 32.8456 36.1667 31.7244 36.6364C30.6032 37.1061 29.3153 37.3409 27.8608 37.3409C25.7244 37.3409 24.0047 36.8939 22.7017 36C21.3987 35.0985 20.6222 33.8447 20.3722 32.2386L24.3835 31.8523C24.5653 32.6402 24.9517 33.2348 25.5426 33.6364C26.1335 34.0379 26.9025 34.2386 27.8494 34.2386C28.8267 34.2386 29.6108 34.0379 30.2017 33.6364C30.8002 33.2348 31.0994 32.7386 31.0994 32.1477C31.0994 31.6477 30.9063 31.2348 30.5199 30.9091C30.1411 30.5833 29.5502 30.3333 28.7472 30.1591L25.7699 29.5341C24.0956 29.1856 22.857 28.5985 22.054 27.7727C21.2509 26.9394 20.8532 25.8864 20.8608 24.6136C20.8532 23.5379 21.1449 22.6061 21.7358 21.8182C22.3343 21.0227 23.1638 20.4091 24.2244 19.9773C25.2926 19.5379 26.5237 19.3182 27.9176 19.3182C29.9631 19.3182 31.5729 19.7538 32.7472 20.625C33.929 21.4962 34.66 22.6742 34.9403 24.1591ZM41.2415 37.25C40.5521 37.25 39.9612 37.0076 39.4688 36.5227C38.9763 36.0379 38.7339 35.447 38.7415 34.75C38.7339 34.0682 38.9763 33.4848 39.4688 33C39.9612 32.5152 40.5521 32.2727 41.2415 32.2727C41.9081 32.2727 42.4877 32.5152 42.9801 33C43.4801 33.4848 43.7339 34.0682 43.7415 34.75C43.7339 35.2121 43.6127 35.6326 43.3778 36.0114C43.1506 36.3902 42.8475 36.6932 42.4688 36.9205C42.0975 37.1402 41.6884 37.25 41.2415 37.25Z" fill="#F0EBD8"/>
<rect x="0.5" y="0.5" width="51" height="49" stroke="#0D1321"/>
</svg>
